<svg width="20" height="20" fill="none" xmlns="http://www.w3.org/2000/svg"><path d="M17.0312 0H2.96875c-.96926 0-1.75781.788555-1.75781 1.75781V18.2422c0 .9692.78855 1.7578 1.75781 1.7578H17.0312c.9693 0 1.7579-.7886 1.7579-1.7578V1.75781C18.7891.788555 18.0005 0 17.0312 0zm.586 18.2422c0 .3231-.2629.5859-.586.5859H2.96875c-.32309 0-.58594-.2628-.58594-.5859V1.75781c0-.32308.26285-.58593.58594-.58593H17.0312c.3231 0 .586.26285.586.58593V18.2422z" fill="#52555F"/><path d="M15.8594 2.34375H4.14062c-.32359 0-.58593.26234-.58593.58594v4.76562c0 .3236.26234.58594.58593.58594H15.8594c.3236 0 .5859-.26234.5859-.58594V2.92969c0-.3236-.2623-.58594-.5859-.58594zm-.586 4.76563H4.72656V3.51562H15.2734v3.59376zM6.48438 9.45312H4.14062c-.32359 0-.58593.26235-.58593.58598v2.3437c0 .3236.26234.586.58593.586h2.34376c.32359 0 .58593-.2624.58593-.586v-2.3437c0-.32363-.26234-.58598-.58593-.58598zm-.58594 2.34378H4.72656V10.625h1.17188v1.1719zM6.48438 14.1406H4.14062c-.32359 0-.58593.2624-.58593.586v2.3437c0 .3236.26234.5859.58593.5859h2.34376c.32359 0 .58593-.2623.58593-.5859v-2.3437c0-.3236-.26234-.586-.58593-.586zm-.58594 2.3438H4.72656v-1.1719h1.17188v1.1719zM11.1719 9.45312H8.82812c-.32359 0-.58593.26235-.58593.58598v2.3437c0 .3236.26234.586.58593.586h2.34378c.3236 0 .5859-.2624.5859-.586v-2.3437c0-.32363-.2623-.58598-.5859-.58598zm-.586 2.34378H9.41406V10.625h1.17184v1.1719zM11.1719 14.1406H8.82812c-.32359 0-.58593.2624-.58593.586v2.3437c0 .3236.26234.5859.58593.5859h2.34378c.3236 0 .5859-.2623.5859-.5859v-2.3437c0-.3236-.2623-.586-.5859-.586zm-.586 2.3438H9.41406v-1.1719h1.17184v1.1719zM15.8594 9.45312h-2.3438c-.3236 0-.5859.26235-.5859.58598v7.0312c0 .3236.2623.5859.5859.5859h2.3438c.3236 0 .5859-.2623.5859-.5859v-7.0312c0-.32363-.2623-.58598-.5859-.58598zm-.586 7.03128h-1.1718V10.625h1.1718v5.8594z" fill="#52555F"/></svg>