<svg width="20" height="20" fill="none" xmlns="http://www.w3.org/2000/svg"><path d="M17.4754 2.06715h-1.312v-.32106c0-.32359-.2623-.58593-.5859-.58593s-.5859.26234-.5859.58593v.32106h-1.6169v-.32106c0-.32359-.2624-.58593-.586-.58593-.3235 0-.5859.26234-.5859.58593v.32106h-1.6169v-.32106c0-.32359-.2623-.58593-.5859-.58593-.32359 0-.58594.26234-.58594.58593v.32106H7.79719v-.32106c0-.32359-.26235-.58593-.58594-.58593s-.58594.26234-.58594.58593v.32106H5.00844v-.32106c0-.32359-.26235-.58593-.58594-.58593s-.58594.26234-.58594.58593v.32106H2.52461C1.13254 2.06715 0 3.19969 0 4.59172V16.3157c0 1.3921 1.13254 2.5246 2.52461 2.5246H17.4754c1.3921 0 2.5246-1.1325 2.5246-2.5246V4.59172c0-1.39203-1.1325-2.52457-2.5246-2.52457zm1.3527 14.24855c0 .7459-.6068 1.3527-1.3527 1.3527H2.52461c-.7459 0-1.35273-.6068-1.35273-1.3527V6.73258H18.8281v9.58312zm0-10.755H1.17188v-.96898c0-.74586.60683-1.3527 1.35273-1.3527h1.31195v.22653c0 .32359.26235.58593.58594.58593s.58594-.26234.58594-.58593v-.22653h1.61687v.22653c0 .32359.26235.58593.58594.58593s.58594-.26234.58594-.58593v-.22653h1.61687v.22653c0 .32359.26235.58593.58594.58593.3236 0 .5859-.26234.5859-.58593v-.22653h1.6169v.22653c0 .32359.2624.58593.5859.58593.3236 0 .586-.26234.586-.58593v-.22653h1.6169v.22653c0 .32359.2623.58593.5859.58593s.5859-.26234.5859-.58593v-.22653h1.312c.7459 0 1.3527.60684 1.3527 1.3527v.96898z" fill="#52555F"/><path d="M6.5318 7.98145H4.21973c-.3236 0-.58594.26234-.58594.58593v2.39212c0 .3236.26234.586.58594.586H6.5318c.32359 0 .58593-.2624.58593-.586V8.56738c0-.32359-.2623-.58593-.58593-.58593zm-.58594 2.39215h-1.1402V9.15332h1.1402v1.22028zM11.1561 7.98145H8.84399c-.32359 0-.58593.26234-.58593.58593v2.39212c0 .3236.26234.586.58593.586h2.31211c.3236 0 .5859-.2624.5859-.586V8.56738c0-.32359-.2623-.58593-.5859-.58593zm-.586 2.39215H9.42993V9.15332h1.14017v1.22028zM15.7802 7.98145h-2.3121c-.3236 0-.5859.26234-.5859.58593v2.39212c0 .3236.2623.586.5859.586h2.3121c.3236 0 .5859-.2624.5859-.586V8.56738c0-.32359-.2623-.58593-.5859-.58593zm-.5859 2.39215h-1.1402V9.15332h1.1402v1.22028zM6.5318 12.5259H4.21973c-.3236 0-.58594.2623-.58594.5859v2.3922c0 .3236.26234.5859.58594.5859H6.5318c.32359 0 .58593-.2623.58593-.5859v-2.3922c0-.3236-.2623-.5859-.58593-.5859zm-.58594 2.3922h-1.1402v-1.2203h1.1402v1.2203zM11.1561 12.5259H8.84399c-.32359 0-.58593.2623-.58593.5859v2.3922c0 .3236.26234.5859.58593.5859h2.31211c.3236 0 .5859-.2623.5859-.5859v-2.3922c0-.3236-.2623-.5859-.5859-.5859zm-.586 2.3922H9.42993v-1.2203h1.14017v1.2203zM15.7802 12.5259h-2.3121c-.3236 0-.5859.2623-.5859.5859v2.3922c0 .3236.2623.5859.5859.5859h2.3121c.3236 0 .5859-.2623.5859-.5859v-2.3922c0-.3236-.2623-.5859-.5859-.5859zm-.5859 2.3922h-1.1402v-1.2203h1.1402v1.2203z" fill="#52555F"/></svg>