<svg width="83" height="89" fill="none" xmlns="http://www.w3.org/2000/svg"><path d="M41.6532 89c-3.974.0004-7.8738-.8599-11.6704-2.5791-4.3785-1.9828-8.5841-4.4182-12.4994-7.2381-.1712-.1233-.3325-.2541-.485-.3925l-4.2118 3.3904c-.2921.2359-.701.2622-1.0211.0655-.1458-.0895-3.60904-2.2302-6.54109-5.6537-2.94227-3.435-4.231819-6.8086-4.285162-6.9501-.116464-.3089-.052453-.6573.165802-.9039l2.58844-2.9281c.06357-.0716.13558-.1304.21292-.1762C2.58308 63.0577.806782 58.2639.16623 50.3707-.400533 43.381.483616 37.6495 2.79378 33.335c.12358-.231.30628-.6088.50409-1.0169.33872-.6988.68856-1.422.92993-1.8168.23782-.389.49653-.8371.78369-1.3338 2.22793-3.8565 6.37441-11.034 15.84841-16.5039 8.0294-4.63531 12.0247-5.11732 15.5493-5.5428 2.0968-.25279 3.9069-.47176 6.3438-1.56306C48.9531 2.78233 50.1915.511167 50.2035.488468c.1183-.226092.3316-.3987764.5792-.4601951.2463-.0623089.513-.0218081.7228.1232821.6495.449514 3.8918 2.806575 3.9269 5.084405.0174 1.1042-.3654 1.85992-.645 2.41091-.2867.56567-.2765.57903-.1556.74058.1298.17269.3663.26793.7415.40902.8953.33691 2.2479.84517 2.3106 3.46033.0502 2.0829-1.0482 3.2459-1.9421 4.0893 1.767.8821 6.298 3.289 9.8919 6.4418 2.3217 2.0366 4.1425 4.4177 5.2618 6.0556.8534 1.2497 1.3678 2.074 1.6616 2.6383 1.1451-.6209 1.9234-.8875 2.5284-1.0949.7099-.243 1.1011-.3774 1.7154-.9475 2.0435-1.8964 5.3822-.4059 5.7859-.1264.228.1576.376.4059.4063.6805.0564.51-.2347.8256-.7637 1.3984-.8797.9524-2.7094 2.9343-3.5882 6.2972-.7872 3.0135-.6228 6.5157-.4778 9.6049.0915 1.9507.1778 3.7928.0022 5.2491-.5739 4.7604-1.7683 14.667-9.0704 22.8104-3.4917 3.8943-7.8738 7.2959-12.4066 9.6805-.0791.0601-.1671.1051-.26.1358-1.1184.5781-2.2444 1.0935-3.3677 1.539C49.2091 88.2367 45.3978 89 41.6532 89zm-4.8821-2.2805c6.6424 1.2453 13.1097-.2466 18.7467-3.0981.3907-.7962 1.5216-3.4604 1.4371-7.4886-.0987-4.7471-.9206-6.2465-.929-6.2607-.2388-.4206-.1032-.964.3116-1.2124.4147-.2488.9472-.1277 1.2042.2817.1102.1758 1.081 1.8689 1.1913 7.154.0542 2.6219-.3561 4.7181-.8011 6.1939 3.826-2.2889 7.1839-5.1627 9.8399-8.1241 1.3785-1.5373 2.528-3.1453 3.4895-4.772-.3254-.7962-1.0579-3.0968-.6601-6.9595.4632-4.4987.6334-6.9519.6352-6.9759.0334-.4905.465-.8559.9477-.8269.4903.0334.8602.4584.8259.9489-.0017.0249-.1738 2.5034-.6401 7.0368-.2036 1.9815-.0813 3.4853.1054 4.521 2.8423-5.8192 3.5339-11.5587 3.9255-14.8073.1574-1.308.0747-3.078-.0129-4.9517-.1511-3.2174-.3222-6.8634.5339-10.139.9153-3.5022 2.7182-5.6488 3.7593-6.7908-.8281-.2159-1.9963-.3302-2.6711.2969-.8913.8269-1.5665 1.0583-2.3484 1.3262-.7392.2528-1.6585.5679-3.2583 1.5582-1.4767.9142-1.5118 2.1123-1.4469 3.9922.0435 1.2435.092 2.6531-.6335 3.8988-1.2686 2.1786-2.8133 1.6779-3.8348 1.349-.553-.1789-1.034-.3347-1.5354-.2181-.0471.3845.2814 1.4625.5254 2.2636.561 1.8412 1.3287 4.3625.9131 6.9074-.2325 1.4215-.6584 2.2912-1.3407 2.7367-.7962.5207-1.6438.3031-2.3244.1268-.8948-.2305-1.0691-.2096-1.326.1638-.9837 1.4251-1.2584 2.726-1.6389 4.5263-.1605.7588-.3428 1.6191-.6015 2.5867-.4041 1.5114-1.1797 2.5685-2.3062 3.1417-1.7113.8714-4.1762.6315-7.755-.7548-3.0165-1.1683-5.7623-1.4371-7.5342-1.4563h-.028c-.7726 0-1.47.3614-2.2373.9257-5.1324 4.9251-10.7844 7.7041-16.3543 7.9564-1.0762.0486-2.2097.0085-3.3574-.0974-1.2513.3146-2.0057 1.2831-2.3129 2.2084-.3827 1.1518-.2564 2.7683 1.2474 3.8507 3.8202 2.7514 7.9226 5.1275 12.194 7.0613 1.2909.5844 2.5831 1.0517 3.8704 1.4113.5677-.429 3.1944-2.515 5.617-6.1138-.1872-.4246-1.2811-2.9939-1.4136-5.2695-.0658-1.135-.104-2.5943.0863-3.1021l1.6642.6266s.0111-.02.0236-.0734c-.0049.0205-.1107.5238.0013 2.4452.0694 1.1945.4703 2.539.8059 3.4821 2.7027-4.6905 3.1001-6.3617 3.1037-6.3786.1071-.4753.5787-.7798 1.0544-.6783.4761.1019.7828.5643.6859 1.0419-.0391.1936-.4703 2.0415-3.5246 7.2857-2.0715 3.5565-4.4794 5.9785-5.9192 7.2434zM2.80756 69.4991c.45208 1.017 1.66517 3.4808 3.7673 5.9349 2.10036 2.4528 4.55274 4.2415 5.60184 4.954l3.3272-2.6788c-1.2184-.9364-3.1738-2.459-4.4216-3.5329-3.29923-2.8364-5.67563-6.1018-5.77521-6.2398-.04089-.0565-.07379-.1162-.10001-.1771-.10269-.1362-.23204-.316-.38184-.5426l-2.01768 2.2823zm5.91522-.1829c.93705 1.0637 2.15152 2.3352 3.51752 3.5098.8357.7187 2.0252 1.6658 3.0783 2.4883-.0383-.6534.048-1.3258.2689-1.9903.26-.7833.6783-1.4634 1.2131-2.0122-3.0632-.514-6.0068-1.34-8.07782-1.9956zm-2.05723-2.5809c1.21753.4459 7.26965 2.5822 12.83815 3.1439.3472-.0637.7086-.0921 1.0762-.0859 1.7176.0311 3.3601-.0908 4.8773-.3681 5.5747-1.0201 9.2073-4.0754 11.3774-5.9011.3823-.3222.7255-.6097 1.0309-.8496.0964-.0757.1942-.1509.2929-.2252 1.5349-1.4838 3.0254-3.1729 4.4523-5.0559 5.641-7.4446 5.2902-11.0047 5.1218-12.715l-.024-.2488c-.0396-.4424-.2877-1.244-.5504-2.0918-.6827-2.2049-1.6176-5.2242-.7343-7.4522.8152-2.0562 2.8916-2.2413 4.899-2.4202 1.4398-.1282 2.929-.2613 4.0896-1.0317 2.4871-1.6516 1.2336-5.9011.1014-8.1509-.4477-.8892-.9993-1.5581-1.4861-2.1478-.8343-1.0108-1.6967-2.0562-1.302-3.6326.2521-1.0072.9491-1.6579 1.6225-2.2872.8544-.7985 1.5927-1.4883 1.5585-2.9147-.0342-1.414-.4338-1.564-1.1584-1.8368-.4859-.1825-1.0904-.4099-1.5376-1.00631-.7966-1.06103-.3414-1.95917-.0093-2.6152.2382-.46998.4632-.91416.4529-1.57775-.0124-.8336-1.3006-2.18481-2.4608-3.12256-.9033 1.05925-3.0152 2.93786-7.7142 5.04168-2.6827 1.20078-4.7101 1.44556-6.8567 1.70459-3.3561.40501-7.1599.86387-14.8745 5.31765-9.062 5.2317-12.90263 11.88-15.19724 15.8531-.29516.5105-.56187.9716-.80591 1.3717-.19604.3209-.55699 1.0659-.84637 1.6641-.2107.4344-.4054.8358-.53698 1.082-1.98967 3.7145-2.8347 8.6253-2.5182 14.6136 1.33089-4.4867 4.04868-11.1577 9.4283-17.357 9.0179-10.3927 26.5386-16.0637 27.2801-16.3.4694-.1478.9682.1104 1.1166.5786.1489.4682-.1093.9689-.577 1.118-.1684.0538-16.0951 5.2108-25.13 14.3217 1.751.5772 5.817 1.7339 8.6442 1.0864 1.1628-.2657 2.1679-.5181 3.0543-.7411 2.1941-.5519 3.7793-.9506 5.6449-1.0232.0116-.0009.024-.0009.0351-.0009.4752 0 .8695.3761.8877.8554.0191.4914-.3627.9053-.8535.924-1.6011.0628-3.0462.4099-4.9843.8964l1.7322 1.6645c.3543.3409.3659.9039.0263 1.2586-.341.3547-.9028.3663-1.2571.0263l-2.5413-2.4421c-.4246.1028-.8735.2097-1.3496.3182-3.8682.8822-9.3158-1.0102-10.3653-1.3975-.0071.0081-.0142.0165-.0213.0245-2.88675 3.3269-4.97999 6.8277-6.48869 10.0229 2.37018-1.2912 6.24019-2.9575 8.70329-1.7264 1.6358.8171 2.8804 2.2876 4.0851 3.7096 1.3162 1.5546 2.5595 3.0228 4.1887 3.5747.465.1576.7143.6627.557 1.1287-.1574.4655-.661.7156-1.1273.5576-2.0959-.7103-3.5593-2.4384-4.9746-4.1097-.5139-.607-1.0153-1.199-1.5314-1.7264-.373 1.1563-.9948 3.3438-1.0148 5.1298-.0285 2.5431 1.2397 6.1441 1.2522 6.1802.1644.4633-.0769.9724-.5392 1.1371-.4623.1656-.9713-.0765-1.1358-.5398-.0569-.1589-1.3878-3.934-1.3558-6.797.028-2.5138 1.0478-5.546 1.3331-6.3462-.1733-.1126-.3498-.2145-.5307-.3053-2.2191-1.1073-7.31458 1.7339-8.92507 2.8172-.0609.041-.12491.0735-.19115.0975-2.00789 5.0662-2.49597 8.8229-2.50397 8.8888-.00134.0085-.00222.0165-.00356.0249 1.22599 8.057 3.67751 11.6611 4.2545 12.416zm35.20685-5.6172c1.9212.0467 4.7621.3685 7.8675 1.5711 2.9903 1.1585 5.1133 1.4367 6.3082.8278.6663-.3387 1.1219-.9978 1.3944-2.0148.2463-.9213.4157-1.7211.5788-2.4941.3916-1.8515.7295-3.4506 1.9159-5.1694 1.0015-1.4518 2.3982-1.0913 3.2321-.8759.3609.0926.7694.1985.9095.1059.0573-.0374.3538-.2875.5578-1.5337.349-2.135-.3209-4.3336-.8592-6.1-.4992-1.6392-.8602-2.8235-.3676-3.7079.152-.2723.456-.6302 1.0441-.785 1.0229-.2693 1.8866.0093 2.5809.2336.9722.3133 1.2042.3899 1.7528-.5519.4663-.8011.4307-1.8399.3925-2.9396-.0587-1.6926-.1312-3.7719 1.8434-5.2638-.6463-1.1714-2.9965-5.1649-6.5616-8.2933-3.7517-3.2917-8.7321-5.8081-9.9407-6.3964-.0294.0667-.0534.1348-.0707.2043-.1623.6484.0987 1.0356.9481 2.0655.5197.6293 1.166 1.4131 1.7034 2.4803 1.7341 3.4462 2.5898 8.2471-.7063 10.4363-1.5367 1.0201-3.3312 1.1799-4.9146 1.3214-1.9119.1705-3.0121.3151-3.4041 1.3041-.6521 1.644.1755 4.3166.7796 6.2682.3041.9814.5664 1.8292.6233 2.459l.0222.2332c.1911 1.9369.5876 5.9661-5.4743 13.9665-.7036.9276-1.4229 1.811-2.1554 2.6486z" fill="#DFE2EB"/></svg>