<svg width="89" height="82" fill="none" xmlns="http://www.w3.org/2000/svg"><path d="M5e-7 41.6532c-.0004426-3.974.8598635-7.8738 2.5791495-11.6704 1.98276-4.3785 4.41814-8.5841 7.23806-12.4994.12328-.1712.25409-.3325.39249-.485l-3.39044-4.2118c-.23589-.2921-.26215-.701-.06542-1.0211.08945-.1458 2.23021-3.60904 5.65366-6.54109 3.435-2.94227 6.8086-4.231819 6.9501-4.285161.3089-.116464.6573-.052453.9039.165801l2.9281 2.58844c.0716.06357.1304.13558.1762.21293C25.9423 2.58308 30.7361.806782 38.6293.16623 45.619-.400532 51.3505.483617 55.665 2.79378c.231.12358.6088.30628 1.0169.50409.6988.33872 1.422.68856 1.8168.92993.389.23782.8371.49653 1.3338.78369 3.8565 2.22793 11.034 6.37441 16.5039 15.84841 4.6353 8.0294 5.1173 12.0247 5.5428 15.5493.2528 2.0968.4718 3.9069 1.5631 6.3438 2.7754 6.2001 5.0465 7.4385 5.0692 7.4505.2261.1183.3988.3316.4602.5792.0623.2463.0218.513-.1233.7228-.4495.6495-2.8065 3.8918-5.0844 3.9269-1.1042.0174-1.8599-.3654-2.4109-.645-.5656-.2867-.579-.2765-.7406-.1556-.1726.1298-.2679.3663-.409.7415-.3369.8953-.8451 2.2479-3.4603 2.3106-2.0829.0502-3.2459-1.0482-4.0893-1.9421-.8821 1.767-3.289 6.298-6.4418 9.8919-2.0366 2.3217-4.4177 4.1425-6.0556 5.2618-1.2497.8534-2.074 1.3678-2.6383 1.6616.6209 1.1451.8875 1.9234 1.0949 2.5284.243.7099.3774 1.1011.9475 1.7154 1.8964 2.0435.4059 5.3822.1264 5.7859-.1575.228-.4059.376-.6805.4063-.51.0564-.8256-.2347-1.3984-.7637-.9524-.8797-2.9343-2.7094-6.2972-3.5882-3.0135-.7872-6.5157-.6228-9.6049-.4778-1.9507.0915-3.7928.1778-5.2491.0022-4.7604-.5739-14.667-1.7683-22.8104-9.0704-3.89427-3.4917-7.29589-7.8738-9.68054-12.4066-.06008-.0791-.10504-.1671-.13574-.26-.57814-1.1184-1.09353-2.2444-1.53904-3.3677C.763283 49.2091 5e-7 45.3978 5e-7 41.6532zM2.2805 36.7711c-1.24528 6.6424.24657 13.1097 3.09809 18.7467.79622.3907 3.46037 1.5216 7.48861 1.4371 4.7471-.0987 6.2465-.9206 6.2607-.929.4206-.2388.964-.1032 1.2124.3116.2488.4147.1277.9472-.2817 1.2042-.1758.1102-1.8689 1.081-7.154 1.1913-2.6219.0542-4.71811-.3561-6.19394-.801 2.28897 3.8259 5.16274 7.1838 8.12414 9.8398 1.5373 1.3785 3.1453 2.528 4.772 3.4895.7962-.3254 3.0968-1.0579 6.9595-.6601 4.4987.4632 6.9519.6334 6.9759.6352.4905.0334.8559.465.8269.9477-.0334.4903-.4584.8602-.9488.8259-.025-.0017-2.5035-.1738-7.0369-.6401-1.9815-.2036-3.4853-.0813-4.521.1054 5.8192 2.8423 11.5587 3.5339 14.8073 3.9255 1.308.1574 3.078.0747 4.9517-.0129 3.2174-.1511 6.8634-.3222 10.139.5339 3.5022.9153 5.6488 2.7182 6.7908 3.7593.2159-.8281.3302-1.9963-.2969-2.6711-.8269-.8913-1.0583-1.5665-1.3262-2.3484-.2528-.7392-.5679-1.6585-1.5582-3.2583-.9142-1.4767-2.1123-1.5118-3.9922-1.4469-1.2435.0435-2.6531.092-3.8988-.6335-2.1786-1.2686-1.6779-2.8133-1.349-3.8348.1789-.553.3347-1.034.2181-1.5354-.3845-.0471-1.4625.2814-2.2636.5254-1.8412.561-4.3625 1.3287-6.9074.9131-1.4215-.2325-2.2912-.6584-2.7367-1.3407-.5207-.7962-.3031-1.6438-.1268-2.3244.2305-.8948.2096-1.0691-.1638-1.326-1.4251-.9837-2.726-1.2584-4.5263-1.6389-.7588-.1605-1.6191-.3428-2.5867-.6015-1.5114-.404-2.5685-1.1797-3.1417-2.3061-.8714-1.7114-.6315-4.1763.7548-7.7551 1.1683-3.0165 1.4371-5.7623 1.4563-7.5342v-.028c0-.7726-.3614-1.47-.9257-2.2373-4.9251-5.1324-7.7041-10.7844-7.9564-16.3543-.0486-1.0761-.0085-2.2097.0974-3.3574-.3146-1.2513-1.2831-2.0057-2.2084-2.3129-1.1518-.3827-2.7683-.2564-3.8507 1.2474-2.75135 3.8202-5.12755 7.9226-7.06135 12.194-.58436 1.2909-1.05168 2.5831-1.41129 3.8704.42904.5677 2.51505 3.1944 6.11383 5.617.42459-.1872 2.99391-1.2811 5.26951-1.4136 1.135-.0658 2.5943-.104 3.1021.0863l-.6266 1.6642s.02.0111.0734.0236c-.0205-.0049-.5238-.1107-2.4452.0013-1.1945.0694-2.539.4703-3.4821.8059 4.6905 2.7027 6.3617 3.1001 6.3786 3.1037.4753.1071.7798.5787.6783 1.0544-.1019.4761-.5643.7828-1.0419.6859-.1936-.0391-2.0415-.4703-7.28569-3.5246-3.5565-2.0715-5.97854-4.4794-7.24341-5.9192zM19.5009 2.80756c-1.017.45208-3.4808 1.66517-5.9349 3.7673-2.4528 2.10036-4.24148 4.55274-4.95402 5.60184l2.67882 3.3272c.9364-1.2184 2.459-3.1738 3.5329-4.4216 2.8364-3.29923 6.1018-5.67563 6.2398-5.77521.0565-.04089.1162-.07378.1771-.10001.1362-.10269.316-.23204.5426-.38184l-2.2823-2.01768zm.1829 5.91522c-1.0637.93705-2.3352 2.15152-3.5098 3.51752-.7187.8357-1.6658 2.0252-2.4883 3.0783.6534-.0383 1.3258.048 1.9903.2689.7833.26 1.4634.6783 2.0122 1.2131.514-3.0632 1.34-6.0068 1.9956-8.07782zm2.5809-2.05723c-.4459 1.21753-2.5822 7.26965-3.1439 12.83815.0637.3472.0921.7086.0859 1.0762-.0311 1.7176.0908 3.3601.3681 4.8773 1.0201 5.5747 4.0754 9.2073 5.9011 11.3774.3222.3823.6097.7255.8496 1.0309.0757.0964.1509.1942.2252.2929 1.4838 1.5349 3.1729 3.0254 5.0559 4.4523 7.4446 5.641 11.0047 5.2902 12.715 5.1218l.2488-.024c.4424-.0396 1.244-.2877 2.0918-.5504 2.2049-.6827 5.2242-1.6176 7.4522-.7343 2.0562.8152 2.2413 2.8916 2.4202 4.899.1282 1.4398.2613 2.929 1.0317 4.0896 1.6516 2.4871 5.9011 1.2336 8.1509.1014.8892-.4477 1.5581-.9993 2.1478-1.4861 1.0108-.8343 2.0562-1.6967 3.6326-1.302 1.0072.2521 1.6579.9491 2.2872 1.6225.7985.8544 1.4883 1.5927 2.9148 1.5585 1.4139-.0342 1.5639-.4338 1.8367-1.1584.1825-.4859.4099-1.0904 1.0063-1.5376 1.061-.7966 1.9592-.3414 2.6152-.0093.47.2382.9142.4632 1.5778.4529.8336-.0124 2.1848-1.3006 3.1225-2.4608-1.0592-.9033-2.9378-3.0152-5.0417-7.7142-1.2007-2.6827-1.4455-4.7101-1.7045-6.8567-.4051-3.3561-.8639-7.1599-5.3177-14.8745-5.2317-9.062-11.88-12.90263-15.8531-15.19724-.5105-.29516-.9716-.56187-1.3717-.80591-.3209-.19604-1.0659-.55699-1.6641-.84637-.4344-.2107-.8358-.4054-1.082-.53698-3.7145-1.98967-8.6253-2.8347-14.6136-2.5182 4.4867 1.33089 11.1577 4.04868 17.357 9.4283 10.3927 9.0179 16.0637 26.5386 16.3 27.2801.1478.4694-.1104.9682-.5786 1.1166-.4682.1489-.9689-.1093-1.118-.577-.0538-.1684-5.2108-16.0951-14.3217-25.13-.5772 1.751-1.7339 5.817-1.0864 8.6442.2657 1.1628.5181 2.1679.7411 3.0543.5519 2.1941.9506 3.7793 1.0232 5.6449.0009.0116.0009.024.0009.0351 0 .4752-.3761.8695-.8554.8877-.4914.0191-.9053-.3627-.924-.8535-.0628-1.6011-.4099-3.0462-.8964-4.9843l-1.6645 1.7322c-.3409.3543-.9039.3659-1.2586.0263-.3547-.341-.3663-.9028-.0263-1.2571l2.4421-2.5413c-.1028-.4246-.2097-.8735-.3182-1.3496-.8822-3.8682 1.0102-9.3158 1.3975-10.3653-.0081-.0071-.0165-.0142-.0245-.0213-3.3269-2.88675-6.8277-4.97999-10.0229-6.48869 1.2912 2.37018 2.9575 6.24019 1.7264 8.70329-.8171 1.6358-2.2876 2.8804-3.7096 4.0851-1.5546 1.3162-3.0228 2.5595-3.5747 4.1887-.1576.465-.6627.7143-1.1287.557-.4655-.1574-.7156-.661-.5576-1.1273.7103-2.0959 2.4384-3.5593 4.1097-4.9746.607-.5139 1.199-1.0153 1.7264-1.5314-1.1563-.373-3.3438-.9948-5.1298-1.0148-2.5431-.0285-6.1441 1.2397-6.1802 1.2522-.4633.1644-.9724-.0769-1.1371-.5392-.1656-.4623.0765-.9713.5398-1.1358.1589-.0569 3.934-1.3878 6.797-1.3558 2.5138.028 5.546 1.0478 6.3462 1.3331.1126-.1733.2145-.3498.3053-.5307 1.1073-2.2191-1.7339-7.31458-2.8172-8.92507-.041-.0609-.0735-.12491-.0975-.19114-5.0662-2.0079-8.8229-2.49598-8.8888-2.50398-.0085-.00134-.0165-.00222-.0249-.00356-8.057 1.22599-11.6611 3.67751-12.416 4.2545zm5.6172 35.20685c-.0467 1.9212-.3685 4.7621-1.5711 7.8675-1.1585 2.9903-1.4367 5.1133-.8278 6.3082.3387.6663.9978 1.1219 2.0148 1.3944.9213.2463 1.7211.4157 2.4941.5788 1.8515.3916 3.4506.7295 5.1694 1.9159 1.4518 1.0015 1.0913 2.3982.8759 3.2321-.0926.3609-.1985.7694-.1059.9095.0374.0573.2875.3538 1.5337.5578 2.135.349 4.3336-.3209 6.1-.8592 1.6392-.4992 2.8235-.8602 3.7079-.3676.2723.152.6302.456.785 1.0441.2693 1.0229-.0093 1.8866-.2336 2.5809-.3133.9722-.3899 1.2042.5519 1.7528.8011.4663 1.8399.4307 2.9396.3925 1.6926-.0587 3.7719-.1312 5.2638 1.8434 1.1714-.6463 5.1649-2.9965 8.2933-6.5616 3.2917-3.7517 5.8081-8.7321 6.3964-9.9407-.0667-.0294-.1348-.0534-.2043-.0707-.6484-.1623-1.0356.0987-2.0655.9481-.6293.5197-1.4131 1.166-2.4803 1.7034-3.4462 1.7341-8.2471 2.5898-10.4363-.7063-1.0201-1.5367-1.1799-3.3312-1.3214-4.9146-.1705-1.9119-.3151-3.0121-1.3041-3.4041-1.644-.6521-4.3166.1755-6.2682.7796-.9814.3041-1.8292.5664-2.459.6233l-.2332.0222c-1.9369.1911-5.9661.5876-13.9665-5.4743-.9276-.7036-1.811-1.4229-2.6486-2.1554z" fill="#DFE2EB"/></svg>